#!OML:ASF X:\für Bonn\!DataBase\2005_08_12_Daniel\c3d\Daniel.ASF
:FULLY-SPECIFIED
:DEGREES
3137
root -19.3807 17.291 28.4131 -179.043 18.0153 538.757
lowerback 11.543 -4.73159 -3.68404
upperback 4.20254 -6.32598 -0.109926
thorax -1.64802 -3.02938 2.71989
lowerneck -0.892875 3.7686 -8.33832
upperneck 14.9127 6.48473 -1.01143
head 4.43523 2.99364 1.32682
rclavicle 3.97569e-016 6.75868e-015
rhumerus -43.8425 -27.9932 -70.2787
rradius 13.6547
rwrist 36.3585
rhand -17.6541 16.0702
rfingers 7.12502
rthumb 8.60417 -13.7345
lclavicle 3.97569e-016 6.75868e-015
lhumerus -17.5966 29.6408 69.2712
lradius 24.6475
lwrist -20.5845
lhand -17.9374 -7.1003
lfingers 7.12502
lthumb 8.33076 22.7154
rfemur -33.5949 10.6405 11.5009
rtibia 32.5856
rfoot -20.0022 -13.8722
rtoes -4.72254
lfemur 17.6631 -2.87472 -22.7373
ltibia 10.6625
lfoot -28.9109 20.9165
ltoes -13.3151
3138
root -19.3108 17.2733 28.3225 -179.051 18.4583 538.801
lowerback 11.5534 -4.75095 -3.7008
upperback 4.20758 -6.35244 -0.0178685
thorax -1.63379 -3.04463 2.82732
lowerneck -0.983695 3.92408 -8.11201
upperneck 14.9673 6.69544 -1.06289
head 4.4672 3.10042 1.28564
rclavicle -1.29608e-013 1.86858e-014
rhumerus -43.9018 -28.2884 -70.1572
rradius 13.6616
rwrist 36.5581
rhand -17.2619 15.9325
rfingers 7.12502
rthumb 8.9826 -13.8562
lclavicle -1.29608e-013 1.86858e-014
lhumerus -17.9491 28.6964 69.8752
lradius 25.2973
lwrist -19.6122
lhand -18.283 -7.07372
lfingers 7.12502
lthumb 7.99723 22.755
rfemur -33.6115 10.2964 11.7883
rtibia 32.8163
rfoot -19.7664 -13.753
rtoes -4.53794
lfemur 18.3485 -2.66099 -22.5912
ltibia 10.1813
lfoot -28.6441 21.0714
ltoes -13.7079
3139
root -19.2396 17.2571 28.2287 -179.071 18.8819 538.847
lowerback 11.586 -4.77576 -3.70759
upperback 4.20166 -6.3866 0.0723146
thorax -1.64378 -3.06301 2.93095
lowerneck -1.06533 4.07822 -7.79158
upperneck 15.0398 6.91781 -1.22136
head 4.51044 3.21269 1.19797
rclavicle -1.00386e-014 7.55382e-015
rhumerus -43.7849 -27.7655 -70.6872
rradius 13.863
rwrist 35.7588
rhand -16.8462 15.6533
rfingers 7.12502
rthumb 9.38373 -14.1178
lclavicle -1.00386e-014 7.55382e-015
lhumerus -18.4192 27.7407 70.4813
lradius 26.0623
lwrist -18.4971
lhand -18.5353 -7.10472
lfingers 7.12502
lthumb 7.7537 22.7331
rfemur -33.5862 9.74691 12.1668
rtibia 33.0923
rfoot -19.4473 -13.296
rtoes -4.8699
lfemur 19.054 -2.38977 -22.429
ltibia 9.7071
lfoot -28.3077 21.16
ltoes -14.2834
3140
root -19.1637 17.2427 28.1341 -179.078 19.3275 538.902
lowerback 11.6216 -4.75874 -3.69178
upperback 4.17639 -6.36584 0.135202
thorax -1.68555 -3.05319 2.98955
lowerneck -1.05144 4.19087 -7.46491
upperneck 15.0628 7.06112 -1.31652
head 4.52322 3.29228 1.12214
rclavicle -6.11263e-014 2.18663e-014
rhumerus -43.9589 -27.9978 -70.6387
rradius 13.967
rwrist 35.8245
rhand -16.4224 15.5783
rfingers 7.12502
rthumb 9.79265 -14.174
lclavicle -6.11263e-014 2.18663e-014
lhumerus -18.8626 26.5355 71.1263
lradius 26.8013
lwrist -17.3003
lhand -18.6833 -6.9979
lfingers 7.12502
lthumb 7.61082 22.8452
rfemur -33.5701 9.2479 12.5874
rtibia 33.4033
rfoot -19.0625 -12.8084
rtoes -5.38207
lfemur 19.7226 -2.1026 -22.2413
ltibia 9.28233
lfoot -27.9582 21.264
ltoes -14.9583
3141
root -19.0875 17.2273 28.0379 -179.079 19.7584 538.917
lowerback 11.6288 -4.77607 -3.74842
upperback 4.16826 -6.3951 0.22532
thorax -1.67852 -3.07013 3.11773
lowerneck -1.16385 4.33708 -7.13113
upperneck 15.1303 7.27602 -1.49996
head 4.57368 3.3993 1.02585
rclavicle 8.17005e-014 5.56597e-015
rhumerus -43.8614 -27.7375 -70.9493
rradius 14.1084
rwrist 35.5297
rhand -16.0154 15.5398
rfingers 7.12502
rthumb 10.1853 -14.1937
lclavicle 8.17005e-014 5.56597e-015
lhumerus -19.3554 25.766 71.7725
lradius 27.557
lwrist -16.2732
lhand -18.7319 -7.04793
lfingers 7.12502
lthumb 7.56395 22.7968
rfemur -33.5655 8.66489 12.9881
rtibia 33.7436
rfoot -18.6148 -12.2012
rtoes -6.12304
lfemur 20.3135 -1.83946 -22.0962
ltibia 8.98219
lfoot -27.604 21.3229
ltoes -15.4783
3142
root -19.0096 17.2135 27.9409 -179.061 20.174 539.011
lowerback 11.6506 -4.77822 -3.67253
upperback 4.14892 -6.39218 0.282842
thorax -1.71284 -3.06882 3.13831
lowerneck -1.13315 4.44881 -6.70183
upperneck 15.1482 7.42794 -1.704
head 4.59118 3.4834 0.900821
rclavicle -9.07452e-014 5.96354e-015
rhumerus -43.8908 -27.5361 -71.2799
rradius 14.3135
rwrist 35.0277
rhand -15.6593 15.6051
rfingers 7.12502
rthumb 10.5288 -14.1112
lclavicle -9.07452e-014 5.96354e-015
lhumerus -19.8461 24.9012 72.3573
lradius 28.2922
lwrist -15.3024
lhand -18.4562 -7.1382
lfingers 7.12502
lthumb 7.83007 22.6968
rfemur -33.5203 8.12823 13.4932
rtibia 34.0937
rfoot -18.16 -11.5804
rtoes -7.28822
lfemur 20.8524 -1.58589 -21.8803
ltibia 8.8311
lfoot -27.2812 21.407
ltoes -16.0446
3143
root -18.93 17.1998 27.8433 -179.082 20.5794 539.046
lowerback 11.6952 -4.78625 -3.68394
upperback 4.13914 -6.40474 0.365347
thorax -1.73514 -3.07577 3.23572
lowerneck -1.16579 4.59774 -6.368
upperneck 15.1927 7.63821 -1.87391
head 4.62307 3.59136 0.806087
rclavicle 5.04913e-014 4.57205e-015
rhumerus -43.8736 -27.3656 -71.5021
rradius 14.483
rwrist 34.75
rhand -15.3548 15.8156
rfingers 7.12502
rthumb 10.8226 -13.8855
lclavicle 5.04913e-014 4.57205e-015
lhumerus -20.3486 24.2307 73.0039
lradius 28.9942
lwrist -14.47
lhand -18.0605 -7.21783
lfingers 7.12502
lthumb 8.21196 22.6026
rfemur -33.4517 7.55969 13.9494
rtibia 34.4598
rfoot -17.5171 -10.941
rtoes -7.73615
lfemur 21.3165 -1.34649 -21.7132
ltibia 8.84492
lfoot -26.9661 21.4608
ltoes -16.6359
3144
root -18.8481 17.1874 27.7449 -179.048 20.9621 539.126
lowerback 11.7162 -4.78058 -3.6124
upperback 4.10655 -6.39242 0.438708
thorax -1.78126 -3.06983 3.2747
lowerneck -1.15766 4.71429 -6.07054
upperneck 15.2505 7.79564 -1.97136
head 4.64989 3.67633 0.736344
rclavicle -5.49143e-014 9.34288e-015
rhumerus -43.8968 -27.1451 -71.8114
rradius 14.7365
rwrist 34.0879
rhand -15.1201 16.0784
rfingers 7.12502
rthumb 11.0489 -13.6108
lclavicle -5.49143e-014 9.34288e-015
lhumerus -20.8482 23.6441 73.6186
lradius 29.5961
lwrist -13.9981
lhand -17.4774 -7.36578
lfingers 7.12502
lthumb 8.77465 22.4318
rfemur -33.3821 7.08647 14.4343
rtibia 34.8257
rfoot -16.7462 -10.3888
rtoes -7.6071
lfemur 21.6336 -1.13251 -21.4972
ltibia 9.08937
lfoot -26.7489 21.4645
ltoes -17.2653
3145
root -18.7652 17.1773 27.6445 -179.017 21.3476 539.197
lowerback 11.719 -4.77636 -3.50473
upperback 4.06831 -6.37875 0.4944
thorax -1.82969 -3.06304 3.27412
lowerneck -1.03809 4.82773 -5.79835
upperneck 14.831 7.93019 -2.08702
head 5.02563 3.7606 0.684448
rclavicle 1.19967e-013 -1.80894e-014
rhumerus -43.9687 -26.9712 -72.0667
rradius 14.9888
rwrist 33.5132
rhand -15.1081 16.4005
rfingers 7.12502
rthumb 11.0605 -13.288
lclavicle 1.19967e-013 -1.80894e-014
lhumerus -21.3879 23.0338 74.2087
lradius 30.1684
lwrist -13.4967
lhand -16.7605 -7.44656
lfingers 7.12502
lthumb 9.46642 22.3208
rfemur -33.303 6.58315 14.9296
rtibia 35.1926
rfoot -15.9114 -9.83356
rtoes -7.60462
lfemur 21.8335 -0.916385 -21.2881
ltibia 9.52747
lfoot -26.6696 21.4418
ltoes -17.6567
3146
root -18.6829 17.1677 27.5455 -178.966 21.7312 539.264
lowerback 11.7064 -4.74692 -3.32117
upperback 4.05124 -6.32148 0.513824
thorax -1.86394 -3.03368 3.18688
lowerneck -1.13142 4.90916 -5.56049
upperneck 15.3426 8.0486 -2.08624
head 4.691 3.81652 0.631561
rclavicle 1.1281e-014 -9.54166e-015
rhumerus -43.9566 -26.846 -72.3739
rradius 15.2123
rwrist 32.7485
rhand -15.1541 16.7857
rfingers 7.12502
rthumb 11.0161 -12.9052
lclavicle 1.1281e-014 -9.54166e-015
lhumerus -21.7958 22.4412 74.8291
lradius 30.644
lwrist -13.1741
lhand -15.9966 -7.51105
lfingers 7.12502
lthumb 10.2035 22.2215
rfemur -33.2766 6.02951 15.422
rtibia 35.633
rfoot -15.2728 -9.13546
rtoes -7.7733
lfemur 21.735 -0.697704 -21.088
ltibia 10.476
lfoot -26.6322 21.4251
ltoes -18.321
3147
root -18.6012 17.1588 27.4453 -178.943 22.0935 539.328
lowerback 11.7779 -4.72759 -3.04746
upperback 3.99518 -6.2724 0.521167
thorax -1.99512 -3.00559 3.04862
lowerneck -1.0795 4.98365 -5.42028
upperneck 15.3632 8.13757 -2.07835
head 4.69161 3.86771 0.613836
rclavicle 6.40087e-014 -1.21259e-014
rhumerus -44.1179 -26.9384 -72.4354
rradius 15.514
rwrist 32.2001
rhand -15.2501 17.1334
rfingers 7.12502
rthumb 10.9235 -12.5624
lclavicle 6.40087e-014 -1.21259e-014
lhumerus -22.311 22.1909 75.4011
lradius 31.0127
lwrist -13.24
lhand -15.2189 -7.78387
lfingers 7.12502
lthumb 10.9536 21.9104
rfemur -33.1813 5.52412 15.899
rtibia 36.0683
rfoot -14.7986 -8.47333
rtoes -8.17416
lfemur 21.6022 -0.343412 -20.827
ltibia 11.5103
lfoot -26.5434 21.2158
ltoes -19.0397
3148
root -18.5171 17.1324 27.3464 -178.836 22.4771 539.43
lowerback 11.747 -4.70886 -2.73003
upperback 3.95038 -6.21683 0.536698
thorax -2.06277 -2.97674 2.88372
lowerneck -1.05896 5.07263 -5.2174
upperneck 15.389 8.24577 -2.08757
head 4.70177 3.92922 0.58292
rclavicle -1.1281e-014 -8.15017e-015
rhumerus -44.1034 -26.9428 -72.6218
rradius 15.7236
rwrist 31.3731
rhand -15.5074 17.572
rfingers 7.12502
rthumb 10.6753 -12.1368
lclavicle -1.1281e-014 -8.15017e-015
lhumerus -22.7464 21.8626 75.9684
lradius 31.2794
lwrist -13.4131
lhand -14.5265 -7.8441
lfingers 7.12502
lthumb 11.6214 21.8136
rfemur -33.2332 5.14378 16.3819
rtibia 36.5414
rfoot -14.4158 -7.97383
rtoes -8.80583
lfemur 21.369 0.00920051 -20.5161
ltibia 12.6339
lfoot -26.4735 20.9393
ltoes -19.7746
3149
root -18.4267 17.1275 27.2456 -178.779 22.8381 539.501
lowerback 11.7945 -4.67259 -2.44987
upperback 3.86349 -6.14714 0.530654
thorax -2.21544 -2.9397 2.72472
lowerneck -0.941023 5.14121 -5.00991
upperneck 15.4537 8.32474 -2.06178
head 4.70695 3.98167 0.558463
rclavicle 3.62285e-014 -1.35174e-014
rhumerus -44.3601 -27.1215 -72.5805
rradius 16.0439
rwrist 30.7299
rhand -15.7369 18.001
rfingers 7.12502
rthumb 10.454 -11.7191
lclavicle 3.62285e-014 -1.35174e-014
lhumerus -23.2951 21.6457 76.4873
lradius 31.5041
lwrist -13.6945
lhand -13.8925 -7.94474
lfingers 7.12502
lthumb 12.2328 21.6775
rfemur -33.1225 4.87362 16.8276
rtibia 36.9606
rfoot -14.1752 -7.5273
rtoes -9.41149
lfemur 21.1221 0.544187 -20.1198
ltibia 13.7946
lfoot -26.2522 20.444
ltoes -20.7773
3150
root -18.3335 17.1238 27.143 -178.723 23.1854 539.6
lowerback 11.8025 -4.64792 -2.20128
upperback 3.83121 -6.08869 0.565342
thorax -2.28015 -2.90965 2.61937
lowerneck -0.779798 5.2197 -4.79558
upperneck 14.9958 8.3999 -2.10041
head 5.06817 4.03996 0.522533
rclavicle -1.14798e-014 6.75868e-015
rhumerus -44.5199 -27.4144 -72.4728
rradius 16.3348
rwrist 30.1315
rhand -16.1189 18.4158
rfingers 7.12502
rthumb 10.0854 -11.3225
lclavicle -1.14798e-014 6.75868e-015
lhumerus -23.7369 21.5669 77.0622
lradius 31.6268
lwrist -14.0321
lhand -13.44 -8.03325
lfingers 7.12502
lthumb 12.669 21.5625
rfemur -32.9877 4.53385 17.3157
rtibia 37.3726
rfoot -13.9955 -7.00593
rtoes -10.0976
lfemur 20.8856 1.08443 -19.664
ltibia 14.9466
lfoot -25.9674 19.8812
ltoes -21.6598
